<svg width="4" height="5" viewBox="0 0 4 5" fill="none" xmlns="http://www.w3.org/2000/svg">
<path d="M2 4.13778C1.70455 4.13778 1.43466 4.06534 1.19034 3.92045C0.946023 3.77273 0.75142 3.5767 0.606534 3.33239C0.461648 3.08807 0.387784 2.81818 0.384943 2.52273C0.384943 2.22443 0.457386 1.95455 0.602273 1.71307C0.747159 1.46875 0.941761 1.27415 1.18608 1.12926C1.43324 0.981534 1.70455 0.90767 2 0.90767C2.2983 0.90767 2.56818 0.981534 2.80966 1.12926C3.05398 1.27415 3.24858 1.46875 3.39347 1.71307C3.54119 1.95455 3.61506 2.22443 3.61506 2.52273C3.61506 2.81818 3.54119 3.08807 3.39347 3.33239C3.24858 3.5767 3.05398 3.77273 2.80966 3.92045C2.56818 4.06534 2.2983 4.13778 2 4.13778Z" fill="#8A8A8A"/>
</svg>
