<svg width="18" height="18" viewBox="0 0 18 18" fill="none" xmlns="http://www.w3.org/2000/svg">
<g clip-path="url(#clip0_738_569)">
<path d="M9.86249 6.15039C9.55184 6.15039 9.29999 6.40223 9.29999 6.71289C9.29999 7.02355 9.55184 7.27539 9.86249 7.27539H12.4875C12.7981 7.27539 13.05 7.02355 13.05 6.71289C13.05 6.40223 12.7981 6.15039 12.4875 6.15039H9.86249Z" fill="#6036D8"/>
<path d="M9.30005 10.8379C9.30005 10.5272 9.55182 10.2754 9.86255 10.2754H12.4874C12.7981 10.2754 13.0499 10.5272 13.0499 10.8379C13.0499 11.1485 12.7981 11.4004 12.4874 11.4004H9.86255C9.55182 11.4004 9.30005 11.1485 9.30005 10.8379Z" fill="#6036D8"/>
<path d="M8.01021 5.56514C8.22989 5.78481 8.22989 6.14097 8.01021 6.36064L6.51023 7.86061C6.29057 8.08029 5.93441 8.08029 5.71474 7.86061L4.96474 7.11064C4.74507 6.89097 4.74507 6.53481 4.96474 6.31514C5.18441 6.09547 5.54057 6.09547 5.76023 6.31514L6.11249 6.66739L7.21474 5.56514C7.43444 5.34547 7.79054 5.34547 8.01021 5.56514Z" fill="#6036D8"/>
<path d="M8.01021 10.4856C8.22989 10.2659 8.22989 9.90982 8.01021 9.69015C7.79054 9.47047 7.43444 9.47047 7.21474 9.69015L6.11249 10.7923L5.76023 10.4401C5.54057 10.2205 5.18441 10.2205 4.96474 10.4401C4.74507 10.6598 4.74507 11.0159 4.96474 11.2356L5.71474 11.9856C5.93441 12.2053 6.29057 12.2053 6.51023 11.9856L8.01021 10.4856Z" fill="#6036D8"/>
<path d="M2.25 0C1.00736 0 0 1.00736 0 2.25V15.75C0 16.9926 1.00736 18 2.25 18H15.75C16.9926 18 18 16.9926 18 15.75V2.25C18 1.00736 16.9926 0 15.75 0H2.25ZM1.5 2.25C1.5 1.83579 1.83579 1.5 2.25 1.5H15.75C16.1642 1.5 16.5 1.83579 16.5 2.25V15.75C16.5 16.1642 16.1642 16.5 15.75 16.5H2.25C1.83579 16.5 1.5 16.1642 1.5 15.75V2.25Z" fill="#6036D8"/>
</g>
<defs>
<clipPath id="clip0_738_569">
<rect width="18" height="18" fill="white"/>
</clipPath>
</defs>
</svg>
