<svg width="20" height="20" viewBox="0 0 20 20" fill="none" xmlns="http://www.w3.org/2000/svg">
<path fill-rule="evenodd" clip-rule="evenodd" d="M4.97273 4.34273C5.13494 4.24135 5.29665 4.1547 5.45459 4.08061C5.45765 3.86031 5.48625 3.63977 5.52742 3.42365C5.59729 3.05683 5.73847 2.55716 6.02887 2.04896C6.64371 0.973 7.85244 0 10 0C12.1475 0 13.3563 0.973 13.9711 2.04896C14.2615 2.55716 14.4027 3.05683 14.4725 3.42365C14.5137 3.63969 14.5424 3.86014 14.5454 4.08035C14.7034 4.15445 14.8651 4.24135 15.0273 4.34273C15.6427 4.72738 16.2205 5.2962 16.6358 6.10843C17.0596 5.93848 17.4802 5.66364 17.7663 5.23436C17.9969 4.88845 18.1818 4.38638 18.1818 3.63636C18.1818 3.13429 18.5888 2.72727 19.0909 2.72727C19.593 2.72727 20 3.13429 20 3.63636C20 4.70453 19.7304 5.56609 19.2792 6.24291C18.6978 7.1149 17.8869 7.58586 17.181 7.84659C17.2405 8.22846 17.2727 8.64246 17.2727 9.09091V10H19.0909C19.593 10 20 10.407 20 10.9091C20 11.4112 19.593 11.8182 19.0909 11.8182H17.2727V13.1992C17.2628 13.459 17.2271 13.7164 17.1833 13.9725C17.8885 14.2333 18.6985 14.7042 19.2792 15.5753C19.7304 16.2521 20 17.1136 20 18.1818C20 18.6839 19.593 19.0909 19.0909 19.0909C18.5888 19.0909 18.1818 18.6839 18.1818 18.1818C18.1818 17.4318 17.9969 16.9297 17.7663 16.5838C17.491 16.1708 17.0925 15.9011 16.684 15.7295C16.5716 16.0062 16.4376 16.2921 16.2775 16.5791C15.3135 18.3084 13.4378 20 10 20C6.56218 20 4.68658 18.3084 3.72241 16.5791C3.5624 16.2921 3.42835 16.0062 3.316 15.7295C2.90748 15.9011 2.50902 16.1708 2.23368 16.5838C2.00307 16.9297 1.81818 17.4318 1.81818 18.1818C1.81818 18.6839 1.41116 19.0909 0.909091 19.0909C0.407018 19.0909 0 18.6839 0 18.1818C0 17.1136 0.269655 16.2521 0.720864 15.5753C1.30157 14.7042 2.11141 14.2333 2.81672 13.9725C2.77295 13.7168 2.73882 13.4585 2.72727 13.1992V11.8182H0.909091C0.407018 11.8182 0 11.4112 0 10.9091C0 10.407 0.407018 10 0.909091 10H2.72727V9.09091C2.72727 8.64246 2.75945 8.22846 2.81896 7.84659C2.11309 7.58586 1.30219 7.1149 0.720864 6.24291C0.269655 5.56609 0 4.70453 0 3.63636C0 3.13429 0.407018 2.72727 0.909091 2.72727C1.41116 2.72727 1.81818 3.13429 1.81818 3.63636C1.81818 4.38638 2.00307 4.88845 2.23368 5.23436C2.51986 5.66364 2.94036 5.93848 3.36421 6.10843C3.77953 5.2962 4.35729 4.72738 4.97273 4.34273ZM12.3925 2.95104C12.5276 3.18756 12.6099 3.42988 12.6592 3.63636H7.34083C7.39009 3.42988 7.47234 3.18756 7.60749 2.95104C7.90175 2.43609 8.51118 1.81818 10 1.81818C11.4888 1.81818 12.0983 2.43609 12.3925 2.95104ZM7.26974 5.45486C6.8045 5.47425 6.32824 5.63962 5.93636 5.88455C5.31176 6.27492 4.54545 7.10894 4.54545 9.09091V13.158C4.60488 14.0367 4.88347 14.9279 5.31045 15.6936C5.912 16.7725 6.9967 17.8807 9.09091 18.13V5.45455L7.26974 5.45486ZM10.9091 5.45455V18.13C13.0033 17.8807 14.088 16.7725 14.6895 15.6936C15.1165 14.9278 15.3951 14.0367 15.4545 13.158V9.09091C15.4545 7.10894 14.6883 6.27492 14.0636 5.88455C13.6717 5.63962 13.1955 5.47425 12.7303 5.45486L10.9091 5.45455Z" fill="#ED2424"/>
</svg>
