<svg width="16" height="17" viewBox="0 0 16 17" fill="none" xmlns="http://www.w3.org/2000/svg">
<g clip-path="url(#clip0_11_53)">
<path d="M3.54594 10.1689L2.989 12.2481L0.953406 12.2911C0.345063 11.1628 0 9.8718 0 8.49993C0 7.17333 0.322625 5.92233 0.8945 4.8208H0.894938L2.70719 5.15305L3.50106 6.95443C3.33491 7.43883 3.24434 7.95883 3.24434 8.49993C3.24441 9.08718 3.35078 9.64983 3.54594 10.1689Z" fill="#FBBB00"/>
<path d="M15.8601 7.00537C15.952 7.48931 15.9999 7.98909 15.9999 8.49987C15.9999 9.07262 15.9397 9.63131 15.825 10.1702C15.4355 12.0041 14.4179 13.6054 13.0083 14.7386L13.0078 14.7381L10.7252 14.6217L10.4022 12.6049C11.3375 12.0564 12.0685 11.1979 12.4536 10.1702H8.17578V7.00537H15.8601Z" fill="#518EF8"/>
<path d="M13.0081 14.7382L13.0086 14.7386C11.6376 15.8406 9.89602 16.4999 8.00021 16.4999C4.95361 16.4999 2.30483 14.7971 0.953613 12.2911L3.54614 10.1689C4.22174 11.972 5.96108 13.2555 8.00021 13.2555C8.87668 13.2555 9.6978 13.0186 10.4024 12.605L13.0081 14.7382Z" fill="#28B446"/>
<path d="M13.1064 2.34175L10.5148 4.4635C9.78553 4.00769 8.92353 3.74438 8.00003 3.74438C5.91475 3.74438 4.14288 5.08678 3.50113 6.9545L0.894969 4.82088H0.894531C2.22597 2.25384 4.90816 0.5 8.00003 0.5C9.94112 0.5 11.7209 1.19144 13.1064 2.34175Z" fill="#F14336"/>
</g>
<defs>
<clipPath id="clip0_11_53">
<rect width="16" height="16" fill="white" transform="translate(0 0.5)"/>
</clipPath>
</defs>
</svg>
