<svg width="200" height="40" viewBox="0 0 200 40" fill="none" xmlns="http://www.w3.org/2000/svg">
<g clip-path="url(#clip0_715_389)">
<path d="M8.70324 0L0 2.72592e-05C4.84782 20.6926 7.37661 31.3655 7.58655 32.0168C8.00643 34.1754 8.27364 35.2548 8.38815 35.2548H11.337V36.9296H8.70318C9.14212 38.9765 9.41888 40 9.5334 40H19.7253V32.8262H22.9603V28.7507H21.1567V27.3551H23.5615V20.4048C23.5615 20.1444 25.136 13.3427 28.2851 0H19.5819C19.5247 0.446471 18.4177 5.63834 16.261 15.5756H17.6352V17.1109H15.8888V22.526H15.0014V27.9971H12.5966V24.2847H11.6232V17.1109H8.56V15.5756H11.9954C9.85792 5.63863 8.7605 0.446614 8.70324 0Z" fill="#96B783"/>
<path d="M44.947 8.84082H49.6282L45.361 31.3517H40.5524L36.2852 8.84082H40.9664L41.3803 11.7284L42.9407 23.372L44.533 11.6663L44.947 8.84082ZM54.5005 31.3517C53.163 31.3517 52.2288 31.0826 51.6981 30.5444C51.1674 30.0062 50.902 29.1161 50.902 27.8741V8.84082H55.615V26.9116C55.615 27.0772 55.6416 27.2014 55.6946 27.2842C55.7477 27.367 55.8698 27.4084 56.0609 27.4084H57.6849C57.876 27.4084 57.9981 27.367 58.0512 27.2842C58.1042 27.2014 58.1308 27.0772 58.1308 26.9116V8.84082H62.8438V27.8741C62.8438 29.1161 62.5785 30.0061 62.0477 30.5444C61.5169 31.0826 60.5828 31.3517 59.2453 31.3517H54.5005ZM64.7545 8.84082H73.7348L74.5309 13.0325H69.4994V18.373H73.3208V22.2542H69.4994V27.16H74.3398L73.5437 31.3517H64.7545V8.84082ZM80.1038 8.84082H84.7213V31.3517H80.1038V8.84082ZM86.632 8.84082H91.0266L93.3831 17.8762V8.84082H98.128V31.3517H93.3831L90.8992 21.9437V31.3517H86.632V8.84082ZM109.146 8.84082L110.293 13.0325H107.204V31.3517H102.491V13.0325H99.4018L100.612 8.84082H109.146ZM111.567 8.84082H120.547L121.343 13.0325H116.311V18.373H120.133V22.2542H116.311V27.16H121.152L120.356 31.3517H111.567V8.84082ZM127.553 12.7841V20.5465H129.814C130.111 20.5465 130.26 20.3912 130.26 20.0807V13.2498C130.26 12.9393 130.111 12.7841 129.814 12.7841H127.553ZM134.813 22.1921C134.813 22.6889 134.638 23.1443 134.288 23.5582C133.938 23.9722 133.423 24.1792 132.743 24.1792L135.164 31.3517H130.387L128.158 24.1792H127.553V31.3517H122.935V8.84082H131.693C132.775 8.84082 133.566 9.10474 134.065 9.63258C134.564 10.1604 134.813 10.8694 134.813 11.7595V22.1921ZM136.788 8.84082H141.182L143.539 17.8762V8.84082H148.284V31.3517H143.539L141.055 21.9437V31.3517H136.788V8.84082ZM151.341 31.3517L150.513 27.16H155.481C155.842 27.16 156.022 27.0047 156.022 26.6942V22.5957C156.022 22.2852 155.958 22.0989 155.831 22.0368C155.704 21.9747 155.481 21.9437 155.162 21.9437H152.774C152.434 21.9437 152.11 21.9178 151.803 21.8661C151.495 21.8143 151.219 21.6953 150.975 21.509C150.73 21.3227 150.539 21.064 150.401 20.7328C150.263 20.4015 150.194 19.9565 150.194 19.3976V11.7595C150.194 10.8694 150.444 10.1604 150.943 9.63258C151.442 9.10474 152.233 8.84082 153.315 8.84082H159.684L160.48 13.0325H155.258C154.876 13.0325 154.685 13.1981 154.685 13.5293V17.6278C154.685 17.8555 154.743 18.0107 154.86 18.0935C154.976 18.1764 155.152 18.2177 155.385 18.2177H158.283C159.026 18.2177 159.594 18.3885 159.987 18.7301C160.38 19.0716 160.576 19.6667 160.576 20.5154V27.9362C160.576 29.1782 160.316 30.058 159.796 30.5754C159.276 31.0929 158.357 31.3517 157.041 31.3517H151.341ZM174.428 31.3517H169.715V22.3473H167.2V31.3517H162.487V8.84082H167.2V18.4661H169.715V8.84082H174.428V31.3517ZM176.339 8.84082H180.957V31.3517H176.339V8.84082ZM187.453 12.7841V21.6332H189.746C189.937 21.6332 190.059 21.597 190.112 21.5245C190.165 21.4521 190.192 21.3331 190.192 21.1675V13.2188C190.192 12.929 190.054 12.7841 189.778 12.7841L187.453 12.7841ZM191.943 8.84082C192.856 8.84082 193.541 9.08918 193.997 9.58598C194.454 10.0828 194.682 10.7451 194.682 11.5731V22.3473C194.682 22.782 194.634 23.1804 194.538 23.5427C194.443 23.9049 194.268 24.2206 194.013 24.4897C193.758 24.7588 193.419 24.971 192.994 25.1262C192.569 25.2815 192.039 25.3591 191.402 25.3591H187.453V31.3517H182.867V8.84082H191.943Z" fill="#0B0F0A"/>
</g>
<defs>
<clipPath id="clip0_715_389">
<rect width="200" height="40" fill="white"/>
</clipPath>
</defs>
</svg>
