<svg width="30" height="30" viewBox="0 0 30 30" fill="none" xmlns="http://www.w3.org/2000/svg">
<g clip-path="url(#clip0_738_174)">
<path fill-rule="evenodd" clip-rule="evenodd" d="M11.1145 27.0407C11.1145 28.675 12.4394 30 14.0738 30H15.9262C17.5605 30 18.8855 28.675 18.8855 27.0407V26.5895C19.4236 26.4089 19.945 26.1919 20.4467 25.9415L20.7661 26.2609C21.3215 26.817 22.0748 27.1283 22.8594 27.1283C23.6432 27.1283 24.3964 26.8171 24.9517 26.2613C24.9515 26.2615 24.9519 26.2612 24.9517 26.2613L26.2608 24.9522C26.2606 24.9524 26.261 24.952 26.2608 24.9522C26.8166 24.3969 27.1283 23.6433 27.1283 22.8594C27.1283 22.075 26.8171 21.3219 26.2613 20.7665C26.2611 20.7664 26.2614 20.7666 26.2613 20.7665L25.9415 20.4467C26.1919 19.945 26.4089 19.4236 26.5895 18.8855H27.0407C28.675 18.8855 30 17.5605 30 15.9262V14.0738C30 12.4395 28.675 11.1145 27.0407 11.1145H26.5895C26.4089 10.5764 26.1919 10.055 25.9415 9.55324L26.2608 9.2339C26.2606 9.23408 26.261 9.23373 26.2608 9.2339C26.8166 8.67853 27.1283 7.92489 27.1283 7.14062C27.1283 6.35677 26.8171 5.60365 26.2614 5.04837C26.2612 5.04818 26.2616 5.04856 26.2614 5.04837L24.9521 3.73907C24.952 3.73894 24.9523 3.73921 24.9521 3.73907C24.3969 3.18341 23.6433 2.87167 22.8594 2.87167C22.075 2.87167 21.3219 3.18295 20.7666 3.73862C20.7664 3.73875 20.7667 3.73849 20.7666 3.73862L20.4467 4.05848C19.945 3.80805 19.4236 3.59107 18.8855 3.41043V2.95924C18.8855 1.32488 17.5604 0 15.9262 0H14.0738C12.4395 0 11.1145 1.32493 11.1145 2.95924V3.41043C10.5764 3.59107 10.055 3.80806 9.55325 4.0585L9.23384 3.73907C9.23369 3.73892 9.23399 3.73923 9.23384 3.73907C8.67853 3.18336 7.92493 2.87167 7.14062 2.87167C6.35669 2.87167 5.60348 3.18297 5.04827 3.73867M5.04827 3.73867L3.73907 5.04787C3.73892 5.04802 3.73922 5.04772 3.73907 5.04787C3.18346 5.60308 2.87168 6.35663 2.87168 7.14062C2.87168 7.92522 3.18309 8.6785 3.73907 9.23384L4.0585 9.55325C3.80807 10.055 3.59109 10.5764 3.41045 11.1145H2.9593C1.32501 11.1145 0 12.4395 0 14.0738V15.9262C0 17.5605 1.32501 18.8855 2.9593 18.8855H3.41046C3.59109 19.4236 3.80807 19.945 4.05849 20.4467L3.73901 20.7662C3.73889 20.7663 3.73912 20.7661 3.73901 20.7662C3.18331 21.3215 2.87168 22.0749 2.87168 22.8594C2.87168 23.6434 3.18303 24.3965 3.73867 24.9517L5.04774 26.2607C5.60303 26.8165 6.35683 27.1283 7.14062 27.1283C7.92482 27.1283 8.678 26.8172 9.23339 26.2613C9.23321 26.2615 9.23356 26.2612 9.23339 26.2613L9.55324 25.9415C10.0549 26.1919 10.5764 26.4089 11.1145 26.5895V27.0407M8.57251 23.7916L7.66808 24.696C7.52886 24.8354 7.33885 24.9146 7.14062 24.9146C6.94295 24.9146 6.75341 24.836 6.61422 24.6966L5.30387 23.3863C5.16431 23.2469 5.08536 23.0569 5.08536 22.8594C5.08536 22.6612 5.16399 22.4717 5.30354 22.3323L6.20835 21.4275C6.56564 21.0702 6.63568 20.5162 6.37845 20.0813C5.90778 19.2855 5.54447 18.4191 5.30774 17.502C5.18159 17.0133 4.74077 16.6718 4.23603 16.6718H2.9593C2.54755 16.6718 2.21368 16.3379 2.21368 15.9262V14.0738C2.21368 13.6621 2.54755 13.3282 2.9593 13.3282H4.23603C4.74078 13.3282 5.1816 12.9867 5.30775 12.498C5.54447 11.5809 5.90777 10.7145 6.37846 9.91861C6.63569 9.48367 6.5657 8.92974 6.20837 8.57246L5.42577 9.35517C6.20837 8.57246 6.20837 8.57246 6.20837 8.57246L5.30393 7.66808C5.16445 7.52876 5.08536 7.33881 5.08536 7.14062C5.08536 6.94308 5.16391 6.75349 5.30347 6.61409L6.61369 5.30387C6.75297 5.16441 6.94303 5.08536 7.14062 5.08536C7.33877 5.08536 7.52832 5.16401 7.66762 5.30347L8.57238 6.20829C8.57239 6.2083 8.57246 6.20837 9.35517 5.42577L8.57238 6.20829C8.92967 6.56562 9.48368 6.63569 9.91861 6.37846C10.7145 5.90776 11.5809 5.54442 12.498 5.30776C12.9867 5.18162 13.3282 4.7408 13.3282 4.23603V2.95924C13.3282 2.54751 13.662 2.21368 14.0738 2.21368H15.9262C16.3379 2.21368 16.6718 2.54756 16.6718 2.95924V4.23603C16.6718 4.7408 17.0133 5.18162 17.502 5.30776C18.4191 5.54442 19.2855 5.90776 20.0814 6.37846C20.5163 6.63571 21.0703 6.56569 21.4276 6.20832L22.3319 5.30392C22.4713 5.16437 22.6612 5.08536 22.8594 5.08536C23.0569 5.08536 23.2465 5.16392 23.3859 5.30347L24.696 6.61358C24.8355 6.7529 24.9146 6.943 24.9146 7.14062C24.9146 7.33889 24.836 7.52832 24.6965 7.66755L23.7917 8.57244C23.4344 8.92971 23.3643 9.48366 23.6215 9.91857C24.0922 10.7145 24.4555 11.5809 24.6923 12.498C24.8184 12.9867 25.2592 13.3282 25.764 13.3282H27.0407C27.4525 13.3282 27.7863 13.6621 27.7863 14.0738V15.9262C27.7863 16.3379 27.4525 16.6718 27.0407 16.6718H25.764C25.2592 16.6718 24.8184 17.0133 24.6923 17.502C24.4555 18.4191 24.0922 19.2855 23.6215 20.0813C23.3643 20.5162 23.4343 21.0701 23.7915 21.4274L24.5742 20.6448C23.7915 21.4274 23.7915 21.4274 23.7915 21.4274L24.6961 22.3319C24.8356 22.4712 24.9146 22.6611 24.9146 22.8594C24.9146 23.057 24.836 23.2465 24.6965 23.3858L23.3864 24.696C23.2471 24.8355 23.057 24.9146 22.8594 24.9146C22.6611 24.9146 22.4716 24.836 22.3323 24.6965L21.4276 23.7917C21.4276 23.7917 21.4275 23.7916 20.6448 24.5742L21.4276 23.7917C21.0703 23.4344 20.5164 23.3643 20.0814 23.6215C19.2855 24.0922 18.4191 24.4556 17.5021 24.6922C17.0133 24.8183 16.6718 25.2591 16.6718 25.7639V27.0407C16.6718 27.4524 16.3379 27.7863 15.9262 27.7863H14.0738C13.6621 27.7863 13.3282 27.4525 13.3282 27.0407V25.7639C13.3282 25.2591 12.9867 24.8183 12.4979 24.6922C11.5809 24.4556 10.7145 24.0922 9.91857 23.6215C9.48366 23.3643 8.92978 23.4343 8.57251 23.7916Z" fill="#597B56"/>
<path fill-rule="evenodd" clip-rule="evenodd" d="M8.33594 15C8.33594 18.6783 11.3216 21.6641 15 21.6641C18.6785 21.6641 21.6641 18.6783 21.6641 15C21.6641 11.3215 18.6785 8.33586 15 8.33586C11.3216 8.33586 8.33594 11.3215 8.33594 15ZM15 19.4504C12.5442 19.4504 10.5496 17.4558 10.5496 15C10.5496 12.5441 12.5442 10.5495 15 10.5495C17.4559 10.5495 19.4505 12.5441 19.4505 15C19.4505 17.4558 17.4559 19.4504 15 19.4504Z" fill="#597B56"/>
</g>
<defs>
<clipPath id="clip0_738_174">
<rect width="30" height="30" fill="white"/>
</clipPath>
</defs>
</svg>
