<svg width="30" height="30" viewBox="0 0 30 30" fill="none" xmlns="http://www.w3.org/2000/svg">
<path d="M10.7298 5.11256C12.6296 1.70419 13.5798 0 15 0C16.4202 0 17.3703 1.70419 19.2702 5.11256L19.7619 5.99435C20.3017 6.96289 20.5717 7.44718 20.9926 7.76672C21.4135 8.08624 21.9378 8.20486 22.9862 8.44207L23.9407 8.65804C27.6302 9.49288 29.475 9.91023 29.9139 11.3216C30.3528 12.7329 29.0951 14.2036 26.5798 17.1448L25.9292 17.9058C25.2143 18.7417 24.8569 19.1596 24.6962 19.6766C24.5354 20.1935 24.5894 20.7512 24.6976 21.8663L24.7959 22.8815C25.1762 26.8059 25.3662 28.7681 24.2172 29.6403C23.0682 30.5126 21.3409 29.7173 17.8865 28.1268L16.9927 27.7152C16.0112 27.2633 15.5202 27.0372 15 27.0372C14.4798 27.0372 13.9888 27.2633 13.0073 27.7152L12.1135 28.1268C8.659 29.7173 6.93176 30.5126 5.78273 29.6403C4.63367 28.7681 4.82382 26.8059 5.2041 22.8815L5.30248 21.8663C5.41053 20.7512 5.46457 20.1935 5.30378 19.6766C5.14302 19.1596 4.78563 18.7417 4.07087 17.9058L3.42014 17.1448C0.904868 14.2036 -0.352767 12.7329 0.0861334 11.3216C0.525016 9.91023 2.36979 9.49288 6.05931 8.65804L7.01382 8.44207C8.06227 8.20486 8.58649 8.08624 9.00741 7.76672C9.42833 7.44718 9.69829 6.96291 10.2382 5.99435L10.7298 5.11256Z" fill="black"/>
</svg>
