<svg width="32" height="32" viewBox="0 0 32 32" fill="none" xmlns="http://www.w3.org/2000/svg">
<path d="M11.7298 6.11256C13.6296 2.70419 14.5798 1 16 1C17.4202 1 18.3703 2.70419 20.2702 6.11256L20.7619 6.99435C21.3017 7.96289 21.5717 8.44718 21.9926 8.76672C22.4135 9.08623 22.9378 9.20486 23.9862 9.44207L24.9407 9.65803C28.6302 10.4929 30.475 10.9102 30.9139 12.3216C31.3528 13.7329 30.0951 15.2036 27.5798 18.1448L26.9292 18.9058C26.2143 19.7417 25.8569 20.1596 25.6962 20.6766C25.5354 21.1935 25.5894 21.7512 25.6976 22.8663L25.7959 23.8815C26.1762 27.8059 26.3662 29.7681 25.2172 30.6403C24.0682 31.5126 22.3409 30.7173 18.8865 29.1268L17.9927 28.7152C17.0112 28.2633 16.5202 28.0372 16 28.0372C15.4798 28.0372 14.9888 28.2633 14.0073 28.7152L13.1135 29.1268C9.659 30.7173 7.93176 31.5126 6.78273 30.6403C5.63367 29.7681 5.82382 27.8059 6.2041 23.8815L6.30248 22.8663C6.41053 21.7512 6.46457 21.1935 6.30378 20.6766C6.14302 20.1596 5.78563 19.7417 5.07087 18.9058L4.42014 18.1448C1.90487 15.2036 0.647233 13.7329 1.08613 12.3216C1.52502 10.9102 3.36979 10.4929 7.05931 9.65803L8.01382 9.44207C9.06227 9.20486 9.58649 9.08623 10.0074 8.76672C10.4283 8.44718 10.6983 7.96291 11.2382 6.99435L11.7298 6.11256Z" stroke="black" stroke-width="2"/>
</svg>
