<svg width="20" height="20" viewBox="0 0 20 20" fill="none" xmlns="http://www.w3.org/2000/svg">
<path d="M16.875 9.99966C16.7092 9.99966 16.5503 10.0655 16.4331 10.1827C16.3159 10.2999 16.25 10.4589 16.25 10.6247V12.4997C16.25 12.6654 16.3159 12.8244 16.4331 12.9416C16.5503 13.0588 16.7092 13.1247 16.875 13.1247C17.0408 13.1247 17.1997 13.0588 17.317 12.9416C17.4342 12.8244 17.5 12.6654 17.5 12.4997V10.6247C17.5 10.4589 17.4342 10.2999 17.317 10.1827C17.1997 10.0655 17.0408 9.99966 16.875 9.99966ZM17.225 7.60591C17.1902 7.58213 17.1524 7.5632 17.1125 7.54966C17.0752 7.53084 17.0351 7.51818 16.9938 7.51217C16.8934 7.49206 16.7895 7.49693 16.6915 7.52636C16.5934 7.55578 16.504 7.60886 16.4313 7.68091C16.3733 7.73931 16.3275 7.80858 16.2964 7.88472C16.2653 7.96087 16.2495 8.04241 16.25 8.12466C16.25 8.29043 16.3159 8.4494 16.4331 8.56661C16.5503 8.68382 16.7092 8.74966 16.875 8.74966C17.0408 8.74966 17.1997 8.68382 17.317 8.56661C17.4342 8.4494 17.5 8.29043 17.5 8.12466C17.4977 7.95919 17.433 7.80069 17.3188 7.68091L17.225 7.60591Z" fill="#597B56"/>
<path d="M15.625 2.5H15C15 2.00272 14.8025 1.52581 14.4508 1.17417C14.0992 0.822544 13.6223 0.625 13.125 0.625H6.875C6.37772 0.625 5.90081 0.822544 5.54917 1.17417C5.19754 1.52581 5 2.00272 5 2.5H4.375C3.88626 2.49983 3.41677 2.69049 3.06654 3.03138C2.71632 3.37227 2.51303 3.83644 2.5 4.325V17.55C2.51303 18.0386 2.71632 18.5027 3.06654 18.8436C3.41677 19.1845 3.88626 19.3752 4.375 19.375H15.625C16.1137 19.3752 16.5832 19.1845 16.9335 18.8436C17.2837 18.5027 17.487 18.0386 17.5 17.55V14.375C17.5 14.2092 17.4342 14.0503 17.3169 13.9331C17.1997 13.8158 17.0408 13.75 16.875 13.75C16.7092 13.75 16.5503 13.8158 16.4331 13.9331C16.3158 14.0503 16.25 14.2092 16.25 14.375V17.55C16.2374 17.7069 16.166 17.8534 16.0502 17.96C15.9343 18.0666 15.7825 18.1255 15.625 18.125H4.375C4.21755 18.1255 4.06571 18.0666 3.94984 17.96C3.83396 17.8534 3.7626 17.7069 3.75 17.55V4.325C3.7626 4.16805 3.83396 4.02164 3.94984 3.91504C4.06571 3.80844 4.21755 3.7495 4.375 3.75H5C5 4.24728 5.19754 4.72419 5.54917 5.07583C5.90081 5.42746 6.37772 5.625 6.875 5.625H13.125C13.6223 5.625 14.0992 5.42746 14.4508 5.07583C14.8025 4.72419 15 4.24728 15 3.75H15.625C15.7825 3.7495 15.9343 3.80844 16.0502 3.91504C16.166 4.02164 16.2374 4.16805 16.25 4.325V5.625C16.25 5.79076 16.3158 5.94973 16.4331 6.06694C16.5503 6.18415 16.7092 6.25 16.875 6.25C17.0408 6.25 17.1997 6.18415 17.3169 6.06694C17.4342 5.94973 17.5 5.79076 17.5 5.625V4.325C17.487 3.83644 17.2837 3.37227 16.9335 3.03138C16.5832 2.69049 16.1137 2.49983 15.625 2.5ZM13.75 3.75C13.75 3.91576 13.6842 4.07473 13.5669 4.19194C13.4497 4.30915 13.2908 4.375 13.125 4.375H6.875C6.70924 4.375 6.55027 4.30915 6.43306 4.19194C6.31585 4.07473 6.25 3.91576 6.25 3.75V2.5C6.25 2.33424 6.31585 2.17527 6.43306 2.05806C6.55027 1.94085 6.70924 1.875 6.875 1.875H13.125C13.2908 1.875 13.4497 1.94085 13.5669 2.05806C13.6842 2.17527 13.75 2.33424 13.75 2.5V3.75Z" fill="#597B56"/>
<path d="M13.9125 8.3315L8.75002 14.094L6.06877 11.4315C5.9492 11.3291 5.79541 11.2756 5.63811 11.2817C5.48081 11.2878 5.3316 11.353 5.22029 11.4643C5.10898 11.5756 5.04377 11.7248 5.0377 11.8821C5.03162 12.0394 5.08513 12.1932 5.18752 12.3127L8.31252 15.4377C8.42791 15.5555 8.58516 15.6229 8.75002 15.6252C8.83512 15.6233 8.91893 15.604 8.99631 15.5686C9.07369 15.5331 9.14301 15.4822 9.20002 15.419L14.825 9.169C14.9361 9.04551 14.9935 8.88296 14.9847 8.7171C14.9759 8.55125 14.9016 8.39568 14.7781 8.28462C14.6547 8.17357 14.4921 8.11611 14.3262 8.1249C14.1604 8.13369 14.0048 8.20801 13.8938 8.3315H13.9125Z" fill="#597B56"/>
</svg>
