<svg width="30" height="30" viewBox="0 0 30 30" fill="none" xmlns="http://www.w3.org/2000/svg">
<path fill-rule="evenodd" clip-rule="evenodd" d="M24.2598 23.7647C26.4232 21.4799 27.75 18.3949 27.75 15C27.75 7.95837 22.0416 2.25 15 2.25C7.95837 2.25 2.25 7.95837 2.25 15C2.25 18.5946 3.73755 21.8418 6.13064 24.1595C7.35936 21.6732 9.56982 19.7585 12.2556 18.9221C10.4542 17.946 9.23077 16.039 9.23077 13.8462C9.23077 10.6599 11.8137 8.07692 15 8.07692C18.1863 8.07692 20.7692 10.6599 20.7692 13.8462C20.7692 15.9563 19.6363 17.8019 17.9456 18.8078C20.6629 19.5345 22.9339 21.3531 24.2598 23.7647ZM22.7894 25.0948C21.451 22.3044 18.5996 20.3777 15.2982 20.3777C11.8681 20.3777 8.9238 22.4575 7.65751 25.4248C9.73337 26.8896 12.2662 27.75 15 27.75C17.9332 27.75 20.6351 26.7595 22.7894 25.0948ZM15 30C23.2843 30 30 23.2843 30 15C30 6.71573 23.2843 0 15 0C6.71573 0 0 6.71573 0 15C0 23.2843 6.71573 30 15 30ZM15 17.6923C17.1242 17.6923 18.8462 15.9703 18.8462 13.8462C18.8462 11.722 17.1242 10 15 10C12.8758 10 11.1538 11.722 11.1538 13.8462C11.1538 15.9703 12.8758 17.6923 15 17.6923Z" fill="#597B56"/>
</svg>
