<svg width="16" height="16" viewBox="0 0 16 16" fill="none" xmlns="http://www.w3.org/2000/svg">
<path fill-rule="evenodd" clip-rule="evenodd" d="M14.7999 7.9999C14.7999 7.99972 14.7998 7.99949 14.7998 7.99921C14.7986 7.98845 14.7897 7.90913 14.7256 7.75129C14.657 7.58236 14.5435 7.36853 14.3766 7.12107C14.0424 6.62581 13.5368 6.05902 12.8911 5.52378C11.5889 4.44447 9.85067 3.5999 8 3.5999C6.14933 3.5999 4.41106 4.44447 3.10894 5.52378C2.46321 6.05902 1.95759 6.62581 1.62343 7.12107C1.45647 7.36853 1.34298 7.58236 1.2744 7.75129C1.21032 7.90913 1.2014 7.98845 1.20019 7.99921C1.20015 7.99949 1.20013 7.99972 1.20011 7.9999C1.20013 8.00009 1.20015 8.00032 1.20019 8.00059C1.2014 8.01136 1.21032 8.09067 1.2744 8.24852C1.34298 8.41745 1.45647 8.63128 1.62343 8.87874C1.95759 9.374 2.46321 9.94078 3.10894 10.476C4.41106 11.5553 6.14933 12.3999 8 12.3999C9.85067 12.3999 11.5889 11.5553 12.8911 10.476C13.5368 9.94078 14.0424 9.374 14.3766 8.87874C14.5435 8.63128 14.657 8.41745 14.7256 8.24852C14.7897 8.09067 14.7986 8.01136 14.7998 8.00059C14.7998 8.00032 14.7999 8.00009 14.7999 7.9999ZM8 13.5999C12.4183 13.5999 16 9.5999 16 7.9999C16 6.3999 12.4183 2.3999 8 2.3999C3.58172 2.3999 0 6.3999 0 7.9999C0 9.5999 3.58172 13.5999 8 13.5999Z" fill="#3D3734"/>
<path fill-rule="evenodd" clip-rule="evenodd" d="M8.00005 9.9998C9.10462 9.9998 10 9.10437 10 7.9998C10 6.89524 9.10462 5.9998 8.00005 5.9998C6.89548 5.9998 6.00005 6.89524 6.00005 7.9998C6.00005 9.10437 6.89548 9.9998 8.00005 9.9998ZM8.00005 11.1998C9.76736 11.1998 11.2 9.76712 11.2 7.9998C11.2 6.23249 9.76736 4.7998 8.00005 4.7998C6.23274 4.7998 4.80005 6.23249 4.80005 7.9998C4.80005 9.76712 6.23274 11.1998 8.00005 11.1998Z" fill="#3D3734"/>
</svg>
